<svg width="21" height="22" viewBox="0 0 21 22" fill="none" xmlns="http://www.w3.org/2000/svg">
<path d="M7.96868 2.45115C8.75585 2.0439 9.62212 1.83247 10.5001 1.83332C13.7612 1.83332 16.4063 4.70798 16.4063 8.25457V8.90082C16.4053 9.67224 16.6154 10.4278 17.0118 11.0779L17.9813 12.6582C18.8659 14.102 18.1904 16.0646 16.6513 16.5211C12.6297 17.7154 8.3704 17.7154 4.3488 16.5211C2.80968 16.0646 2.13418 14.102 3.0188 12.6591L3.9883 11.0779C4.38472 10.4278 4.59486 9.67224 4.5938 8.90082V8.25457C4.5938 7.27007 4.79768 6.3369 5.16255 5.50273M6.56255 17.4166C7.13568 19.019 8.6818 20.1666 10.5001 20.1666C10.7144 20.1666 10.9244 20.1511 11.1301 20.1208M14.4376 17.4166C14.2006 18.0711 13.8085 18.6515 13.2983 19.1033" stroke="#444444" stroke-opacity="0.95" stroke-width="1.5" stroke-linecap="round"/>
</svg>
