<svg width="23" height="23" viewBox="0 0 23 23" fill="none" xmlns="http://www.w3.org/2000/svg">
<path d="M8.7777 9.88889C11.2323 9.88889 13.2222 7.89904 13.2222 5.44444C13.2222 2.98985 11.2323 1 8.7777 1C6.3231 1 4.33325 2.98985 4.33325 5.44444C4.33325 7.89904 6.3231 9.88889 8.7777 9.88889Z" stroke="#4B4B4B" stroke-opacity="0.8" stroke-width="2" stroke-linecap="round" stroke-linejoin="round"/>
<path d="M9.11112 14.3333H5.44445C4.26571 14.3333 3.13525 14.8016 2.30175 15.6351C1.46825 16.4686 1 17.599 1 18.7778V21" stroke="#4B4B4B" stroke-opacity="0.8" stroke-width="2" stroke-linecap="round" stroke-linejoin="round"/>
<path d="M16.5556 19.8889C18.3966 19.8889 19.889 18.3965 19.889 16.5556C19.889 14.7146 18.3966 13.2222 16.5556 13.2222C14.7147 13.2222 13.2223 14.7146 13.2223 16.5556C13.2223 18.3965 14.7147 19.8889 16.5556 19.8889Z" stroke="#4B4B4B" stroke-opacity="0.8" stroke-width="2" stroke-linecap="round" stroke-linejoin="round"/>
<path d="M21 21L18.8889 18.8889" stroke="#4B4B4B" stroke-opacity="0.8" stroke-width="2.44444" stroke-linecap="round" stroke-linejoin="round"/>
</svg>
