<svg width="25" height="22" viewBox="0 0 25 22" fill="none" xmlns="http://www.w3.org/2000/svg">
<path d="M13.01 0.177892C12.8621 0.0626081 12.68 0 12.4925 0C12.305 0 12.1229 0.0626081 11.975 0.177892L0 9.51539L1.03583 10.8254L2.5 9.68373V19.9996C2.50088 20.4413 2.67676 20.8647 2.98913 21.1771C3.3015 21.4895 3.72491 21.6653 4.16667 21.6662H20.8333C21.2751 21.6653 21.6985 21.4895 22.0109 21.1771C22.3232 20.8647 22.4991 20.4413 22.5 19.9996V9.69123L23.9642 10.8329L25 9.52289L13.01 0.177892ZM14.1667 19.9996H10.8333V13.3329H14.1667V19.9996ZM15.8333 19.9996V13.3329C15.8329 12.891 15.6572 12.4673 15.3447 12.1549C15.0322 11.8424 14.6086 11.6667 14.1667 11.6662H10.8333C10.3914 11.6667 9.96777 11.8424 9.65531 12.1549C9.34284 12.4673 9.16711 12.891 9.16667 13.3329V19.9996H4.16667V8.38456L12.5 1.89289L20.8333 8.39289V19.9996H15.8333Z" fill="#4B4B4B" fill-opacity="0.8"/>
</svg>
