<svg width="99" height="35" viewBox="0 0 99 35" fill="none" xmlns="http://www.w3.org/2000/svg">
<path fill-rule="evenodd" clip-rule="evenodd" d="M66.6699 2.47844C63.2403 2.68987 60.352 2.83881 58.8561 2.86456C55.9012 2.9154 48.9583 3.71225 43.4274 4.63848C39.1753 5.34947 32.2314 6.75938 25.9361 8.12534C24.1502 8.25215 22.3402 8.36847 20.5551 8.46952C4.60814 9.37241 2.5815 9.67716 1.92881 11.2703C1.25275 12.9217 1.26291 13.0555 2.06218 13.0243C2.28145 13.0158 2.5145 13.0884 2.7202 13.2146C2.38714 13.4659 2.20763 13.7443 2.08317 14.0708C2.05543 14.1436 2.02891 14.2136 2.00361 14.2807C0.736951 13.9755 0.584331 14.234 0.953633 15.937C1.03637 16.3185 1.07687 16.7633 1.07876 17.2225C0.97507 17.3887 0.969019 17.6666 1.03749 18.0929C0.977681 18.6986 0.854292 19.2759 0.675641 19.712C0.00939973 21.3384 0.0453512 21.4679 1.18251 21.5386L1.23624 21.5418C1.17487 21.9423 1.08459 22.3145 0.967491 22.6217C0.329834 24.2946 0.367622 24.4225 1.50027 24.4251C2.17076 24.4265 2.88103 24.3616 3.07862 24.2809C3.24249 24.2139 3.89356 24.9149 4.62979 25.9243C4.16065 26.1091 4.34486 26.3046 5.08308 26.7496C5.16283 26.7977 5.24148 26.8498 5.31871 26.9052C5.70855 27.4357 6.10779 27.8606 6.51625 28.1799C6.97853 28.9007 7.11666 29.5841 6.63169 29.667C5.21513 29.9093 7.1655 31.6285 10.6789 33.2345C14.5016 34.9819 14.7036 34.9634 32.1218 31.2704C35.8325 30.4837 39.6428 29.6211 43.0978 28.7955C45.0806 28.7548 47.4742 28.649 49.917 28.4943C51.7831 28.4871 53.6728 28.4536 55.4271 28.3912C65.7725 28.0261 91.4903 25.7742 88.0104 25.5382C85.0498 25.3375 86.4637 24.1667 91.0038 23.0597C93.3444 22.489 95.2999 21.5297 95.3495 20.928C95.3991 20.3262 96.0754 19.8092 96.8524 19.7789C97.9041 19.738 98.2213 19.2056 98.0938 17.6955C98.0452 17.1196 97.9395 16.6703 97.7451 16.3101C97.9126 15.9702 97.9451 15.4677 97.8733 14.7474C97.7374 13.3841 97.2937 12.7539 96.1159 12.3811C96.6078 12.3034 96.7084 12.1867 96.4653 11.9355C96.5973 11.6742 96.5271 11.1881 96.3205 10.3599C96.2502 10.0782 96.2017 9.75725 96.1743 9.41835C96.3417 9.32991 96.3295 9.2188 96.1531 9.05225C96.1208 8.1587 96.2251 7.19675 96.4534 6.52305C97.0368 4.80161 96.9976 4.67564 95.9001 4.74693C95.2988 4.78607 94.6657 4.88455 94.4243 4.97353C94.2183 4.61589 93.7059 4.13632 92.9522 3.59541C92.7655 3.35479 92.5714 3.09239 92.3769 2.81569C91.2759 1.24942 90.1187 0.550952 88.9072 0.721456C88.6365 0.759562 88.2854 0.802124 87.8646 0.848358C85.2372 -0.0879504 82.2115 0.317145 67.7987 2.32003C67.4233 2.37219 67.0469 2.42502 66.6699 2.47844ZM8.00261 15.056C7.94468 15.0841 7.88733 15.1123 7.83062 15.1406C7.67937 15.0937 7.52871 15.044 7.37923 14.9914C7.58788 15.0096 7.79605 15.0312 8.00261 15.056ZM3.90578 12.6389C4.22266 12.5315 4.59497 12.4264 5.03402 12.3213C4.20468 12.3089 3.85638 12.3869 3.90578 12.6389Z" fill="white"/>
</svg>