<svg width="12" height="12" viewBox="0 0 12 12" fill="none" xmlns="http://www.w3.org/2000/svg">
<g id="Component 2">
<path id="Vector" d="M6.00551 11.1148C3.09574 11.1148 0.743164 8.76223 0.743164 5.85246C0.743164 2.9427 3.09574 0.590118 6.00551 0.590118C8.91528 0.590118 11.2679 2.9427 11.2679 5.85246C11.2679 8.76223 8.91528 11.1148 6.00551 11.1148ZM6.00551 1.20922C3.43625 1.20922 1.36226 3.2832 1.36226 5.85246C1.36226 8.42173 3.43625 10.4957 6.00551 10.4957C8.57477 10.4957 10.6488 8.42173 10.6488 5.85246C10.6488 3.2832 8.57477 1.20922 6.00551 1.20922Z" fill="#4B4B4B" fill-opacity="0.7"/>
<path id="Vector_2" d="M4.39591 4.18093C4.48878 3.93329 4.58164 3.74756 4.76737 3.59278C4.92215 3.43801 5.10788 3.31419 5.35552 3.22132C5.60316 3.12846 5.8508 3.0975 6.12939 3.0975C6.34608 3.0975 6.56276 3.12846 6.74849 3.19037C6.93422 3.25228 7.11995 3.34514 7.27473 3.46896C7.4295 3.59278 7.55332 3.74756 7.61523 3.93329C7.7081 4.11902 7.73905 4.3357 7.73905 4.55239C7.73905 4.86194 7.67714 5.10958 7.55332 5.32626C7.4295 5.54295 7.24377 5.72868 7.05804 5.94536L6.65563 6.34778C6.56276 6.44064 6.4699 6.53351 6.43894 6.62637C6.37703 6.71924 6.34608 6.84306 6.34608 6.96688C6.31512 7.0907 6.31512 7.18356 6.31512 7.4312H5.81984C5.81984 7.18356 5.81984 7.0907 5.8508 6.90497C5.88175 6.75019 5.94366 6.59542 6.00557 6.44064C6.06748 6.31682 6.16035 6.193 6.28417 6.06918C6.40799 5.94536 6.56276 5.82154 6.71754 5.63581C6.87231 5.48104 6.99613 5.32626 7.089 5.17149C7.18186 5.01671 7.24377 4.80003 7.24377 4.6143C7.24377 4.45952 7.21282 4.30475 7.15091 4.18093C7.089 4.05711 6.99613 3.93329 6.90327 3.84042C6.8104 3.74756 6.68658 3.68565 6.53181 3.62374C6.37703 3.56183 6.25321 3.53087 6.09844 3.53087C5.88175 3.53087 5.69602 3.56183 5.54125 3.65469C5.38647 3.7166 5.2317 3.84042 5.13883 3.96424C5.04597 4.08806 4.9531 4.24284 4.89119 4.42857C4.82928 4.6143 4.76737 4.70716 4.76737 4.92385H4.27209C4.27209 4.64525 4.30305 4.42857 4.39591 4.18093ZM6.31512 8.01934V8.63844H5.69602V8.01934H6.31512Z" fill="#4B4B4B" fill-opacity="0.7"/>
</g>
</svg>
