<svg width="25" height="25" viewBox="0 0 25 25" fill="none" xmlns="http://www.w3.org/2000/svg">
<path d="M24 12.4973C24.0038 14.7804 23.3247 17.0125 22.0501 18.9067C20.9989 20.4744 19.5777 21.759 17.912 22.6469C16.2463 23.5348 14.3875 23.9986 12.5 23.9973C10.6124 23.9986 8.75366 23.5348 7.08798 22.6469C5.4223 21.759 4.00104 20.4744 2.94989 18.9067C1.94904 17.4147 1.31165 15.7091 1.08881 13.9264C0.865973 12.1438 1.06388 10.3337 1.66668 8.64136C2.26947 6.94898 3.26038 5.42137 4.55997 4.18099C5.85956 2.9406 7.43169 2.02194 9.15031 1.49866C10.8689 0.975369 12.6863 0.862011 14.4566 1.16767C16.2269 1.47333 17.901 2.1895 19.3447 3.25877C20.7883 4.32804 21.9614 5.72067 22.7698 7.32502C23.5783 8.92936 23.9996 10.7008 24 12.4973Z" stroke="#4B4B4B" stroke-opacity="0.8" stroke-width="1.91667"/>
<path d="M14.0975 8.66406C14.0975 9.54573 13.3819 10.2613 12.5003 10.2613V12.1779C13.4322 12.1779 14.326 11.8077 14.9849 11.1488C15.6439 10.4898 16.0141 9.596 16.0141 8.66406H14.0975ZM12.5003 10.2613C11.6186 10.2613 10.903 9.54573 10.903 8.66406H8.98637C8.98637 9.596 9.35658 10.4898 10.0156 11.1488C10.6745 11.8077 11.5683 12.1779 12.5003 12.1779V10.2613ZM10.903 8.66406C10.903 7.7824 11.6186 7.06684 12.5003 7.06684V5.15018C11.5683 5.15018 10.6745 5.52039 10.0156 6.17937C9.35658 6.83835 8.98637 7.73212 8.98637 8.66406H10.903ZM12.5003 7.06684C13.3819 7.06684 14.0975 7.7824 14.0975 8.66406H16.0141C16.0141 7.73212 15.6439 6.83835 14.9849 6.17937C14.326 5.52039 13.4322 5.15018 12.5003 5.15018V7.06684ZM3.76793 19.9801L2.84921 19.7066L2.69971 20.2075L3.04087 20.6036L3.76793 19.9801ZM21.2326 19.9801L21.9609 20.6049L22.3008 20.2088L22.1513 19.7066L21.2326 19.9801ZM8.66692 17.2891H16.3336V15.3724H8.66692V17.2891ZM8.66692 15.3724C7.35988 15.3725 6.08775 15.7943 5.03961 16.5751C3.99147 17.356 3.22328 18.4542 2.84921 19.7066L4.68665 20.2535C4.94289 19.3969 5.46856 18.6458 6.18562 18.1118C6.90267 17.5777 7.77285 17.2892 8.66692 17.2891V15.3724ZM12.5003 23.0391C10.979 23.0408 9.47539 22.7125 8.09331 22.0767C6.71123 21.4409 5.48355 20.5128 4.49498 19.3565L3.04087 20.6036C4.20935 21.9695 5.66012 23.0671 7.29317 23.8182C8.92623 24.5693 10.7027 24.9574 12.5003 24.9557V23.0391ZM16.3336 17.2891C18.2119 17.2891 19.8027 18.5387 20.3139 20.2535L22.1513 19.7066C21.7772 18.4542 21.009 17.356 19.9609 16.5751C18.9128 15.7943 17.6406 15.3725 16.3336 15.3724V17.2891ZM20.5055 19.3565C19.517 20.5128 18.2893 21.4409 16.9072 22.0767C15.5251 22.7125 14.0216 23.0408 12.5003 23.0391V24.9557C14.2978 24.9574 16.0743 24.5693 17.7073 23.8182C19.3404 23.0671 20.7924 21.9708 21.9609 20.6049L20.5055 19.3565Z" fill="#666666"/>
</svg>
