<svg width="19" height="19" viewBox="0 0 19 19" fill="none" xmlns="http://www.w3.org/2000/svg">
<path d="M8.3125 12.6666C8.3125 12.3517 8.43761 12.0496 8.66031 11.8269C8.88301 11.6042 9.18506 11.4791 9.5 11.4791C9.81494 11.4791 10.117 11.6042 10.3397 11.8269C10.5624 12.0496 10.6875 12.3517 10.6875 12.6666C10.6875 12.9816 10.5624 13.2836 10.3397 13.5063C10.117 13.729 9.81494 13.8541 9.5 13.8541C9.18506 13.8541 8.88301 13.729 8.66031 13.5063C8.43761 13.2836 8.3125 12.9816 8.3125 12.6666Z" fill="#666666"/>
<path fill-rule="evenodd" clip-rule="evenodd" d="M6.03391 8.38929L5.78374 6.14174C5.75175 5.85367 5.75175 5.56294 5.78374 5.27487L5.80195 5.11258C5.90348 4.20286 6.33678 3.36249 7.019 2.75217C7.70121 2.14186 8.58446 1.80444 9.49983 1.80444C10.4152 1.80444 11.2984 2.14186 11.9807 2.75217C12.6629 3.36249 13.0962 4.20286 13.1977 5.11258L13.2159 5.27487C13.2476 5.56304 13.2476 5.85358 13.2159 6.14174L12.9657 8.39008L13.5096 8.43283C13.9261 8.46596 14.3195 8.63775 14.6269 8.92075C14.9343 9.20375 15.138 9.58163 15.2054 9.99399C15.4952 11.764 15.4952 13.5693 15.2054 15.3393C15.1379 15.7516 14.9342 16.1294 14.6268 16.4124C14.3194 16.6954 13.9261 16.8672 13.5096 16.9005L12.3253 16.9955C10.4443 17.1459 8.55537 17.1459 6.67437 16.9955L5.49004 16.9005C5.07356 16.8672 4.68024 16.6954 4.37287 16.4124C4.0655 16.1294 3.8618 15.7516 3.79429 15.3393C3.50444 13.5693 3.50444 11.764 3.79429 9.99399C3.8618 9.58169 4.0655 9.20388 4.37287 8.92091C4.68024 8.63793 5.07356 8.46609 5.49004 8.43283L6.03391 8.38929ZM9.20374 3.00833C9.53551 2.96933 9.87171 2.99634 10.193 3.08779C10.5143 3.17924 10.8143 3.33333 11.0758 3.5412C11.3373 3.74906 11.5551 4.00659 11.7167 4.29896C11.8783 4.59133 11.9805 4.91277 12.0173 5.24479L12.0355 5.40708C12.0577 5.60737 12.0577 5.81083 12.0355 6.01191L11.7814 8.29983C10.2619 8.20196 8.73773 8.20196 7.21824 8.29983L6.96491 6.01191C6.94258 5.81092 6.94258 5.60807 6.96491 5.40708L6.98233 5.24479C7.04547 4.67586 7.29944 4.14509 7.70283 3.73897C8.10622 3.33285 8.63526 3.07531 9.20374 3.00833ZM12.2311 9.52295C10.4131 9.37787 8.58652 9.37787 6.76858 9.52295L5.58503 9.61795C5.43305 9.62993 5.28947 9.69251 5.17725 9.7957C5.06502 9.89889 4.99062 10.0367 4.96595 10.1872C4.69701 11.8298 4.69701 13.5052 4.96595 15.1477C4.99046 15.2983 5.06479 15.4363 5.17703 15.5397C5.28927 15.643 5.43294 15.7057 5.58503 15.7177L6.76937 15.8127C8.58704 15.9576 10.4126 15.9576 12.2311 15.8127L13.4154 15.7177C13.5674 15.7056 13.7109 15.6428 13.8229 15.5395C13.935 15.4361 14.0092 15.2982 14.0337 15.1477C14.3026 13.5052 14.3026 11.8298 14.0337 10.1872C14.0092 10.0367 13.935 9.89878 13.8229 9.79545C13.7109 9.69212 13.5674 9.62935 13.4154 9.61716L12.2311 9.52295Z" fill="#666666"/>
</svg>
