<svg width="29" height="29" viewBox="0 0 29 29" fill="none" xmlns="http://www.w3.org/2000/svg">
<path d="M3.49976 22.75C3.49976 21.2913 4.07922 19.8924 5.11067 18.8609C6.14212 17.8295 7.54107 17.25 8.99976 17.25H19.9998C21.4584 17.25 22.8574 17.8295 23.8888 18.8609C24.9203 19.8924 25.4998 21.2913 25.4998 22.75C25.4998 23.4793 25.21 24.1788 24.6943 24.6945C24.1786 25.2103 23.4791 25.5 22.7498 25.5H6.24976C5.52041 25.5 4.82094 25.2103 4.30521 24.6945C3.78949 24.1788 3.49976 23.4793 3.49976 22.75Z" stroke="#4B4B4B" stroke-opacity="0.8" stroke-width="2" stroke-linejoin="round"/>
<path d="M14.4998 11.75C16.7779 11.75 18.6248 9.90317 18.6248 7.625C18.6248 5.34683 16.7779 3.5 14.4998 3.5C12.2216 3.5 10.3748 5.34683 10.3748 7.625C10.3748 9.90317 12.2216 11.75 14.4998 11.75Z" stroke="#4B4B4B" stroke-opacity="0.8" stroke-width="2"/>
</svg>
