<svg width="19" height="19" viewBox="0 0 19 19" fill="none" xmlns="http://www.w3.org/2000/svg">
<path d="M8.3125 12.6667C8.3125 12.3518 8.43761 12.0498 8.66031 11.8271C8.88301 11.6044 9.18506 11.4792 9.5 11.4792C9.81494 11.4792 10.117 11.6044 10.3397 11.8271C10.5624 12.0498 10.6875 12.3518 10.6875 12.6667C10.6875 12.9817 10.5624 13.2837 10.3397 13.5064C10.117 13.7291 9.81494 13.8542 9.5 13.8542C9.18506 13.8542 8.88301 13.7291 8.66031 13.5064C8.43761 13.2837 8.3125 12.9817 8.3125 12.6667Z" fill="#666666"/>
<path fill-rule="evenodd" clip-rule="evenodd" d="M7.7662 3.17062C8.07652 3.04708 8.40821 2.98612 8.74219 2.99126C9.07616 2.99639 9.40582 3.06752 9.7122 3.20055C10.0186 3.33358 10.2956 3.52588 10.5274 3.76639C10.7592 4.0069 10.9411 4.29087 11.0627 4.60196L11.1221 4.75396C11.1957 4.94237 11.2487 5.13871 11.2788 5.33821L11.4506 6.46475L12.6247 6.28583L12.4529 5.15929C12.4093 4.87295 12.3341 4.59231 12.2288 4.3225L12.1694 4.16971C11.8361 3.31696 11.2001 2.61705 10.383 2.20388C9.566 1.79071 8.6253 1.69329 7.74092 1.93026C6.85654 2.16723 6.09058 2.72195 5.58959 3.4883C5.08859 4.25464 4.88774 5.1788 5.02545 6.08396L5.0492 6.24546C5.09353 6.53204 5.16874 6.81308 5.27403 7.08304L5.79257 8.40908L5.49016 8.43283C5.07369 8.46609 4.68037 8.63793 4.37299 8.92091C4.06562 9.20389 3.86192 9.58169 3.79441 9.994C3.50457 11.764 3.50457 13.5693 3.79441 15.3393C3.86192 15.7516 4.06562 16.1294 4.37299 16.4124C4.68037 16.6954 5.07369 16.8672 5.49016 16.9005L6.67449 16.9955C8.55549 17.1459 10.4444 17.1459 12.3254 16.9955L13.5097 16.9005C13.9262 16.8672 14.3195 16.6954 14.6269 16.4124C14.9343 16.1294 15.138 15.7516 15.2055 15.3393C15.4953 13.5693 15.4953 11.764 15.2055 9.994C15.138 9.58169 14.9343 9.20389 14.6269 8.92091C14.3195 8.63793 13.9262 8.46609 13.5097 8.43283L12.3254 8.33783C10.5631 8.19727 8.79276 8.18853 7.02916 8.31171L6.37999 6.65079C6.3066 6.46239 6.2543 6.26645 6.22403 6.06654L6.1987 5.90583C6.11249 5.33987 6.22051 4.7614 6.50516 4.2647C6.78981 3.768 7.23431 3.38235 7.7662 3.17062ZM12.2312 9.52216C10.4133 9.37708 8.58664 9.37708 6.7687 9.52216L5.58437 9.61716C5.43252 9.62931 5.28913 9.69197 5.17706 9.79514C5.06499 9.89831 4.99071 10.036 4.96607 10.1864C4.69713 11.829 4.69713 13.5044 4.96607 15.147C4.99055 15.2974 5.06476 15.4353 5.17684 15.5387C5.28892 15.642 5.43241 15.7048 5.58437 15.717L6.76949 15.812C8.58716 15.9568 10.4127 15.9568 12.2304 15.812L13.4147 15.717C13.5668 15.7049 13.7105 15.6422 13.8227 15.5389C13.935 15.4356 14.0093 15.2975 14.0338 15.147C14.3028 13.5044 14.3028 11.829 14.0338 10.1864C14.0093 10.0358 13.935 9.89777 13.8227 9.79443C13.7105 9.69109 13.5668 9.62839 13.4147 9.61637L12.2312 9.52216Z" fill="#666666"/>
</svg>
